<svg width="1130" height="340" viewBox="0 0 1130 340" fill="none" xmlns="http://www.w3.org/2000/svg">
<g clip-path="url(#clip0_21_16)">
<path d="M919.717 340V310.585H890.311V287.979L875.999 310.585H791.085V229.148L779.171 251.764H764.829L749.996 281.169H606.522V251.764H586.363V281.131L497.751 281.179L481.29 235.582V222.31H436.84V281.169H352.977L338.905 257.726V310.585H253.991L227.244 268.388V222.31H209.493V251.764H121.362V340H40.0128L0.330078 301.512V30.9564H31.2865V0H180.954L196.48 30.9564H211.872L227.244 61.6334V0H315.904L326.595 26.0346V0H418.723L436.84 47.8504V61.9127H481.29V0H571.944L582.009 56.4901L589.561 30.9564H609.238L618.051 0H772.477V30.9564H801.372L814.096 0H902.746V60.8725L918.272 30.9564H932.729L949.364 0H1098.71V30.9564H1129.67V114.579L1098.71 153.144V154.84H1129.67V279.802H1098.71V301.367L1059.95 340H919.717Z" fill="#222044"/>
<path d="M243.31 108.916V263.755H305.174V108.916H243.31Z" fill="#E3FF37"/>
<path d="M243.31 16.0464V77.9592H305.174V16.0464H243.31Z" fill="#E3FF37"/>
<path d="M824.825 16.0464V263.755H886.69V16.0464H824.825Z" fill="#E3FF37"/>
<path d="M756.459 47.0028V16.0464H632.73V47.0028H601.822V201.842H632.73V232.799H756.459V201.842H787.416V170.886H725.551V201.842H663.686V139.882H787.464V47.0028H756.459ZM663.638 108.916V47.0028H725.503V108.916H663.638Z" fill="#E3FF37"/>
<path d="M497.308 16.0464V77.9592H466.352V108.916H435.395V77.9592H404.439V16.0464H342.613V77.9592H373.569V108.916H404.526V139.872H373.569V170.828H342.613V232.741H404.477V170.828H435.434V139.872H466.39V170.828H497.347V232.741H559.211V170.828H528.255V139.872H497.347V108.916H528.255V77.9592H559.211V16.0464H497.308Z" fill="#E3FF37"/>
<path d="M171.033 47.0028V16.0464H47.304V47.0028H16.3477V294.712H78.2122V201.794H171.033V170.838H201.99V47.0028H171.033ZM109.169 170.876H78.2122V139.92V108.964V78.0074V47.0413H109.169H140.125V77.9977V108.954V139.91V170.867H109.169V170.876Z" fill="#E3FF37"/>
<path d="M1082.7 47.0028V16.0464H958.957V47.0028H928V139.882H958.957V170.838H1051.78V263.717H989.913V201.804H928.048V263.717H959.005V294.673H1082.73V263.717H1113.69V170.838H1082.73V139.882H989.913V47.0028H1051.78V108.916H1113.64V47.0028H1082.7Z" fill="#E3FF37"/>
</g>
<defs>
<clipPath id="clip0_21_16">
<rect width="1129.34" height="340" fill="white" transform="translate(0.330078)"/>
</clipPath>
</defs>
</svg>
